<?xml version="1.0" encoding="UTF-8" standalone="no"?>
<svg
   viewBox="0 0 1792 1792"
   class="sc-aXZVg fTNJor"
   version="1.1"
   id="svg12"
   width="1792"
   height="1792"
   xmlns="http://www.w3.org/2000/svg"
   xmlns:svg="http://www.w3.org/2000/svg">
  <defs
     id="defs12" />
  <g
     id="g12"
     transform="matrix(57.435897,0,0,57.435897,882,-27.087179)">
    <g
       id="g11"
       transform="matrix(0.98772322,0,0,0.98772322,-13.6625,-15.029955)">
      <path
         class="minioApplicationName"
         d="m 15.679096,15.888135 c 2.6,0 5.1,0.6 7.3,1.7 2.2,1.1 3.9,2.7 5.1,4.6 l -2.9,1.9 c -1,-1.5 -2.3,-2.7 -4,-3.6 -1.7,-0.9 -3.5,-1.3 -5.5,-1.3 -1.7,0 -3.3,0.3 -4.7,0.9 -1.5,0.6 -2.7,1.4 -3.8,2.5 -1.1,1.1 -1.9,2.3 -2.5,3.9 -0.6,1.5 -0.9,3.2 -0.9,5 0,1.8 0.3,3.4 0.9,5 0.6,1.5 1.5,2.8 2.5,3.9 1.1,1.1 2.3,1.9 3.8,2.5 1.5,0.6 3.1,0.9 4.7,0.9 2,0 3.8,-0.4 5.5,-1.3 1.6,-0.9 3,-2 4,-3.6 l 2.8,2.1 c -1.3,1.9 -3,3.4 -5.1,4.5 -2.2,1.1 -4.5,1.6 -7.1,1.6 -2.2,0 -4.3,-0.4 -6.2,-1.2 -1.9,-0.8 -3.6,-1.9 -5,-3.2 -1.4,-1.4 -2.5,-3 -3.3,-4.9 -0.80000003,-1.9 -1.20000003,-4 -1.20000003,-6.3 0,-2.3 0.4,-4.3 1.20000003,-6.3 0.8,-1.9 1.9,-3.6 3.3,-4.9 1.4,-1.4 3,-2.4 5,-3.2 1.8,-0.8 3.9,-1.2 6.1,-1.2 z"
         id="path5" />
    </g>
  </g>
</svg>
